HIERARCHY
ROOT Hips
{
	OFFSET -0.179506 -22.333345 2.821913
	CHANNELS 6 Xposition Yposition Zposition Zrotation Yrotation Xrotation 
	JOINT LeftUpLeg
	{
		OFFSET 6.951974 -9.140623 -0.681533
		CHANNELS 3 Zrotation Yrotation Xrotation
		JOINT LeftLeg
		{
			OFFSET 3.427654 -37.519855 -0.449580
			CHANNELS 3 Zrotation Yrotation Xrotation
			JOINT LeftFoot
			{
				OFFSET -1.359570 -39.796059 -4.369333
				CHANNELS 3 Zrotation Yrotation Xrotation
				JOINT LeftToe
				{
					OFFSET 2.635814 -5.579078 11.928840
					CHANNELS 3 Zrotation Yrotation Xrotation
					End Site
					{
						OFFSET 0.000000 0.000000 0.000000
					}
				}
			}
		}
	}
	JOINT RightUpLeg
	{
		OFFSET -6.767048 -9.052170 -0.431982
		CHANNELS 3 Zrotation Yrotation Xrotation
		JOINT RightLeg
		{
			OFFSET -3.829005 -38.256897 -0.885003
			CHANNELS 3 Zrotation Yrotation Xrotation
			JOINT RightFoot
			{
				OFFSET 1.577377 -39.841461 -4.231180
				CHANNELS 3 Zrotation Yrotation Xrotation
				JOINT RightToe
				{
					OFFSET -2.537174 -4.814398 12.334795
					CHANNELS 3 Zrotation Yrotation Xrotation
					End Site
					{
						OFFSET 0.000000 0.000000 0.000000
					}
				}
			}
		}
	}
	JOINT Spine
	{
		OFFSET -0.253288 10.896323 -2.669631
		CHANNELS 3 Zrotation Yrotation Xrotation
		JOINT Spine1
		{
			OFFSET 0.548704 13.518043 0.109247
			CHANNELS 3 Zrotation Yrotation Xrotation
			JOINT Spine2
			{
				OFFSET 0.145701 5.292222 2.542457
				CHANNELS 3 Zrotation Yrotation Xrotation
				JOINT Neck
				{
					OFFSET -0.277840 21.387037 -4.285703
					CHANNELS 3 Zrotation Yrotation Xrotation
					JOINT Head
					{
						OFFSET 0.515184 6.496960 5.134897
						CHANNELS 3 Zrotation Yrotation Xrotation
						End Site
						{
							OFFSET 0.000000 0.000000 0.000000
						}
					}
				}
				JOINT LeftShoulder
				{
					OFFSET 7.884473 12.174932 -3.408961
					CHANNELS 3 Zrotation Yrotation Xrotation
					JOINT LeftArm
					{
						OFFSET 9.097692 3.046888 -0.886815
						CHANNELS 3 Zrotation Yrotation Xrotation
						JOINT LeftForeArm
						{
							OFFSET 25.961220 -1.277207 -2.745643
							CHANNELS 3 Zrotation Yrotation Xrotation
							JOINT LeftHand
							{
								OFFSET 24.923361 0.898606 -0.117091
								CHANNELS 3 Zrotation Yrotation Xrotation
								End Site
								{
									OFFSET 0.000000 0.000000 0.000000
								}
							}
						}
					}
				}
				JOINT RightShoulder
				{
					OFFSET -8.175920 11.883285 -3.861528
					CHANNELS 3 Zrotation Yrotation Xrotation
					JOINT RightArm
					{
						OFFSET -9.601238 3.255117 -0.914307
						CHANNELS 3 Zrotation Yrotation Xrotation
						JOINT RightForeArm
						{
							OFFSET -25.374195 -1.332924 -2.140099
							CHANNELS 3 Zrotation Yrotation Xrotation
							JOINT RightHand
							{
								OFFSET -25.529810 0.777228 -0.555919
								CHANNELS 3 Zrotation Yrotation Xrotation
								End Site
								{
									OFFSET 0.000000 0.000000 0.000000
								}
							}
						}
					}
				}
			}
		}
	}
}
MOTION
Frames: 18
Frame Time: 0.033333
6.398318 -38.203876 85.797333 -119.529974 3.543056 83.594759 16.318496 7.860241 -10.622212 -5.027040 7.746473 41.668160 1.619282 11.713069 -31.591990 nan nan nan -17.742737 -13.349331 -16.196295 4.370718 -13.034155 31.455336 5.366546 -2.000104 -8.924196 nan nan nan -3.307176 1.971652 8.566741 6.917803 -5.333337 5.922736 1.156714 0.543757 -2.695443 2.887555 -18.772905 12.411518 4.432485 -18.849423 16.320177 -19.961466 -15.076105 1.370911 -60.871822 -45.194679 32.390794 113.385600 -79.492264 -97.048005 -1.041401 -26.765557 -17.731592 21.188993 9.822315 -4.724835 29.242104 13.700400 -9.568434 -74.750969 47.362462 -66.954707 2.776039 9.794228 -1.432406 
6.361829 -38.193157 85.804077 -119.582042 3.570711 83.560049 16.365442 7.915995 -10.511740 -4.906834 7.882881 41.606192 1.672830 11.537497 -31.583838 nan nan nan -17.694489 -13.352732 -16.176110 4.260441 -13.109524 31.481511 5.386751 -1.857170 -8.893350 nan nan nan -3.231733 1.806909 8.620357 6.863216 -5.274941 5.867253 1.093405 0.586440 -2.746478 2.922217 -18.590790 12.616210 4.363624 -18.940722 16.251029 -19.975043 -14.907808 1.264532 -60.922442 -45.076839 32.462586 113.451337 -79.555267 -97.291309 -1.275425 -26.880783 -17.454476 21.258743 9.841739 -4.577272 29.290280 13.803799 -9.592455 -74.744602 47.381176 -67.086008 3.048935 9.779123 -1.248134 
6.349201 -38.184597 85.810295 -119.612267 3.562746 83.563834 16.372187 7.948026 -10.439010 -4.894099 7.920396 41.486408 1.677738 11.517654 -31.549163 nan nan nan -17.699083 -13.390469 -16.220005 4.235715 -13.119068 31.549718 5.411225 -1.788089 -8.856125 nan nan nan -3.251769 1.745064 8.647661 6.855936 -5.220515 5.849977 1.083561 0.630321 -2.816014 2.930344 -18.571139 12.737970 4.401533 -18.964480 16.180413 -20.000093 -14.795508 1.244415 -60.924738 -45.063093 32.541488 113.548295 -79.610200 -97.438626 -1.187613 -26.901062 -17.502097 21.282299 9.779295 -4.494330 29.306561 13.853073 -9.594296 -74.765328 47.382310 -67.117105 2.890218 9.774977 -1.210269 
6.356130 -38.177494 85.814232 -119.605485 3.568469 83.584886 16.377862 7.939284 -10.446052 -4.910230 7.893067 41.444011 1.674816 11.510514 -31.528640 nan nan nan -17.696143 -13.414028 -16.231543 4.236956 -13.143115 31.547956 5.415629 -1.779371 -8.851254 nan nan nan -3.253561 1.710049 8.662108 6.865933 -5.201631 5.814237 1.082913 0.647736 -2.848294 2.918150 -18.578672 12.759792 4.404019 -18.956464 16.177718 -19.997814 -14.726827 1.240107 -60.973402 -45.059048 32.613003 113.669827 -79.631207 -97.548584 -1.063539 -26.886576 -17.621922 21.269575 9.730899 -4.477540 29.324227 13.900043 -9.575491 -74.773059 47.376291 -67.110293 2.691360 9.772615 -1.253771 
6.341921 -38.164116 85.809837 -119.641440 3.547433 83.475971 16.386838 7.999865 -10.253137 -4.899816 7.888598 41.390902 1.635607 11.403138 -31.534155 nan nan nan -17.756707 -13.427444 -16.125925 4.237550 -13.161506 31.638527 5.398745 -1.559021 -9.039102 nan nan nan -3.149631 1.678319 8.645326 6.657494 -5.148960 6.057695 0.929275 0.791891 -2.882447 2.999921 -18.730739 12.585997 4.577454 -18.736125 16.225250 -21.187226 -14.554632 1.397537 -61.640214 -45.218881 32.654873 113.189833 -79.720867 -97.520182 -3.347757 -26.846870 -16.351637 21.621732 9.708948 -4.311366 29.218301 14.033850 -10.007134 -75.118377 47.223640 -67.633412 3.878681 9.501987 -0.129665 
6.270427 -38.061508 85.788849 -119.800681 3.608774 82.478164 16.732620 8.482772 -8.971524 -4.575416 7.910732 41.284141 2.045814 10.272211 -31.447761 nan nan nan -17.925016 -13.377483 -14.858578 3.937031 -13.444454 31.687451 5.611482 -0.348142 -9.456492 nan nan nan -3.445908 2.306255 10.592637 7.210169 -4.861447 6.165031 1.448779 0.236306 -3.670880 4.081259 -17.438457 10.245962 2.930692 -20.050356 16.886478 -20.185915 -12.730935 -0.499513 -67.238817 -44.594905 35.967418 108.256596 -79.727951 -93.088229 -6.493490 -28.303303 -15.429290 22.000520 9.784590 -6.868239 29.021867 13.933562 -7.696471 -76.500645 46.058887 -67.553331 6.631129 8.845462 2.411398 
6.256005 -38.052345 85.792595 -119.798131 3.615949 82.396390 16.742059 8.460209 -8.801580 -4.650176 7.818992 41.123469 2.101235 10.373531 -31.410729 nan nan nan -17.922856 -13.335749 -14.673568 3.971929 -13.329013 31.568286 5.694602 -0.407250 -9.332624 nan nan nan -3.419384 2.305040 10.644772 7.162138 -4.861769 6.332210 1.440282 0.243177 -3.709112 4.170838 -17.221421 10.014697 2.944829 -20.031396 16.862058 -20.078309 -12.766930 -0.552312 -67.352255 -44.696593 35.993290 107.849905 -79.831137 -92.614389 -6.429163 -28.317170 -15.530495 21.904207 9.896331 -7.070985 29.317614 13.941668 -7.544451 -76.748175 45.925196 -67.466591 6.683468 8.672402 2.385217 
6.236683 -38.039188 85.786324 -119.794298 3.612783 82.374007 16.752813 8.450749 -8.714874 -4.719260 7.778605 41.051876 2.115112 10.403209 -31.389071 nan nan nan -17.916505 -13.306304 -14.578124 3.989706 -13.267275 31.457742 5.752482 -0.492770 -9.286892 nan nan nan -3.429896 2.281067 10.730947 7.139353 -4.825888 6.156637 1.461130 0.271538 -3.614405 4.219783 -17.198347 9.970077 2.907361 -20.068127 16.923812 -19.972391 -12.838071 -0.508234 -67.540137 -44.691334 36.036733 107.337099 -79.840170 -92.055211 -6.453838 -28.357779 -15.537773 21.802311 9.922458 -7.088293 29.498154 13.899049 -7.549026 -76.890883 45.934590 -67.435423 6.698461 8.643525 2.317202 
6.230412 -38.017658 85.776299 -119.775718 3.646816 82.369759 16.832429 8.460021 -8.681059 -4.725378 7.835445 41.039128 2.105618 10.305302 -31.387889 nan nan nan -17.885183 -13.232392 -14.489793 3.992564 -13.278569 31.350967 5.848831 -0.516295 -9.253461 nan nan nan -3.434870 2.251644 10.913247 7.203457 -4.732656 5.606496 1.504615 0.267410 -3.227643 4.385173 -17.040971 9.885636 2.732546 -20.319716 16.883575 -19.472470 -12.410340 -0.546406 -68.928624 -44.489870 36.362384 106.569890 -80.037922 -91.277289 -6.792485 -28.606258 -15.284502 21.637969 9.716290 -7.056348 29.702742 14.163073 -7.667553 -76.889672 45.988961 -67.269797 6.877198 8.730485 2.223912 
6.225402 -38.010311 85.766464 -119.744620 3.642857 82.403496 16.820286 8.466324 -8.707382 -4.744882 7.807187 40.995852 2.181235 10.367857 -31.334432 nan nan nan -17.896314 -13.242975 -14.488701 4.081718 -13.187312 31.284028 5.767556 -0.632893 -9.244559 nan nan nan -3.357527 2.262815 10.989143 7.109542 -4.778862 5.547459 1.481609 0.279596 -3.334827 4.266037 -17.205882 9.858683 2.856706 -20.133029 17.032847 -19.847651 -12.922982 -0.500697 -67.844470 -44.598774 36.066312 107.119596 -79.954224 -91.822024 -6.387580 -28.354113 -15.648401 21.591844 9.848957 -7.299374 29.832102 13.781563 -7.578853 -77.005144 46.232192 -67.512494 6.657499 8.626827 2.181160 
6.231537 -38.013229 85.768646 -119.689937 3.631171 82.430397 16.782866 8.381323 -8.749124 -4.757198 7.802451 40.957206 2.212553 10.417470 -31.305766 nan nan nan -17.937967 -13.267399 -14.479889 4.112181 -13.246692 31.232333 5.745996 -0.583222 -9.216469 nan nan nan -3.363281 2.305766 10.981357 7.103700 -4.806818 5.767421 1.521604 0.326275 -3.604924 4.208210 -17.359579 9.848997 2.868462 -20.062304 17.013728 -19.905262 -13.075145 -0.510314 -67.901547 -44.502550 36.182967 106.773401 -79.904491 -91.614040 -6.377352 -28.291339 -15.669359 21.395223 9.753656 -7.707283 29.992868 13.450777 -7.561994 -76.896704 46.696429 -67.699154 6.659467 8.619805 2.350902 
6.236722 -38.007008 85.773254 -119.676923 3.611692 82.422048 16.763823 8.353409 -8.738514 -4.794761 7.784894 40.932690 2.216998 10.456621 -31.269120 nan nan nan -17.975596 -13.300063 -14.460489 4.130612 -13.280962 31.211275 5.754709 -0.519291 -9.177696 nan nan nan -3.409230 2.349168 10.957048 7.125393 -4.821186 5.922789 1.565893 0.366674 -3.716270 4.209204 -17.425933 9.826195 2.862517 -20.028870 16.947815 -19.896295 -13.131339 -0.538392 -68.037085 -44.427862 36.236581 106.465137 -79.933699 -91.422306 -6.326774 -28.285003 -15.645007 21.301001 9.692830 -7.950021 30.019231 13.281458 -7.608103 -76.787506 47.000076 -67.765445 6.564415 8.604028 2.486116 
6.234404 -37.995461 85.774361 -119.687184 3.592889 82.372293 16.761603 8.368595 -8.668320 -4.803900 7.796263 40.924020 2.218195 10.450833 -31.257036 nan nan nan -17.992341 -13.307462 -14.419180 4.137152 -13.240916 31.223567 5.747182 -0.524446 -9.154760 nan nan nan -3.416955 2.395757 11.017393 7.117793 -4.796891 5.860907 1.572625 0.345602 -3.654968 4.276977 -17.427350 9.743094 2.785302 -20.048212 16.990114 -19.840598 -13.122320 -0.539966 -68.157895 -44.429899 36.259990 106.190199 -79.977386 -91.144455 -6.294068 -28.299210 -15.572058 21.282588 9.655735 -8.003482 30.058335 13.308714 -7.648759 -76.763380 47.044222 -67.751747 6.543132 8.575694 2.531035 
6.237597 -37.996578 85.773361 -119.671348 3.577916 82.366111 16.737437 8.365619 -8.674436 -4.810022 7.775122 40.945815 2.233601 10.460607 -31.279949 nan nan nan -17.998374 -13.284464 -14.391382 4.131977 -13.202996 31.187482 5.731608 -0.555078 -9.149949 nan nan nan -3.414688 2.428765 11.054494 7.111466 -4.784706 5.768785 1.582585 0.302993 -3.584884 4.285407 -17.438391 9.699453 2.752887 -20.063435 16.993191 -19.811117 -13.148147 -0.535680 -68.209375 -44.413985 36.256099 106.111693 -79.986673 -91.025071 -6.322249 -28.279394 -15.471658 21.246694 9.657078 -8.033057 30.113832 13.312527 -7.683304 -76.783112 47.075444 -67.784505 6.575995 8.544859 2.538394 
6.243277 -37.998001 85.772316 -119.668276 3.578282 82.369716 16.735957 8.367663 -8.682898 -4.812689 7.771636 40.950208 2.232892 10.464665 -31.279438 nan nan nan -18.000596 -13.284168 -14.390752 4.132715 -13.203494 31.183739 5.731805 -0.554201 -9.147349 nan nan nan -3.414751 2.431834 11.048178 7.113942 -4.786185 5.785588 1.583392 0.302053 -3.593813 4.281110 -17.442930 9.692971 2.751912 -20.070362 16.995466 -19.818280 -13.157028 -0.534145 -68.198736 -44.418668 36.254289 106.106995 -79.984867 -91.012955 -6.321347 -28.278506 -15.458477 21.247741 9.664282 -8.031025 30.108969 13.305348 -7.684634 -76.786331 47.076348 -67.788363 6.558956 8.552349 2.541093 
6.247045 -37.997078 85.773560 -119.664191 3.578364 82.370155 16.733313 8.377089 -8.695596 -4.817006 7.765866 40.957191 2.231185 10.477612 -31.279472 nan nan nan -18.004879 -13.286678 -14.390509 4.136079 -13.204734 31.182574 5.736343 -0.547771 -9.143868 nan nan nan -3.414642 2.433778 11.030000 7.115261 -4.795560 5.851163 1.583819 0.304720 -3.635795 4.280442 -17.442273 9.677343 2.752394 -20.078097 16.997755 -19.847926 -13.189036 -0.535944 -68.138809 -44.433635 36.241379 106.100329 -79.971707 -90.990390 -6.313892 -28.275362 -15.436726 21.259825 9.693756 -8.005750 30.081465 13.278770 -7.689262 -76.807723 47.058747 -67.822058 6.523840 8.579880 2.523490 
6.252016 -37.996403 85.774452 -119.660945 3.571104 82.363074 16.727513 8.385412 -8.695917 -4.822678 7.752255 40.957437 2.230372 10.487707 -31.287907 nan nan nan -18.010798 -13.292006 -14.386062 4.136669 -13.205113 31.174507 5.749869 -0.534505 -9.135044 nan nan nan -3.417185 2.440106 11.007819 7.111712 -4.804895 5.943240 1.586042 0.314954 -3.694475 4.282027 -17.442820 9.653658 2.751877 -20.082535 17.006059 -19.899549 -13.245732 -0.529640 -68.035789 -44.444310 36.219866 106.055381 -79.938509 -90.938399 -6.308073 -28.265614 -15.409142 21.289855 9.747582 -7.934033 30.012068 13.233336 -7.711124 -76.851162 47.010817 -67.875484 6.507250 8.611629 2.504995 
6.256481 -37.997574 85.774559 -119.658192 3.567775 82.364159 16.727488 8.385252 -8.698860 -4.826039 7.744927 40.954727 2.231700 10.486635 -31.292509 nan nan nan -18.011371 -13.295617 -14.386577 4.137572 -13.207409 31.171839 5.752018 -0.532944 -9.133788 nan nan nan -3.417863 2.441308 11.000138 7.110992 -4.806684 5.961421 1.587078 0.317006 -3.706256 4.279891 -17.446700 9.649517 2.751038 -20.080141 17.009712 -19.911165 -13.262594 -0.526968 -68.008602 -44.443955 36.211411 106.064587 -79.928230 -90.947184 -6.302259 -28.258359 -15.410154 21.295142 9.760931 -7.917460 29.994892 13.221371 -7.717390 -76.857401 47.002830 -67.885538 6.503847 8.614726 2.500752 
